<?xml version="1.0" encoding="utf-8"?>
<!-- Generator: Adobe Illustrator 18.0.0, SVG Export Plug-In . SVG Version: 6.00 Build 0)  -->
<!DOCTYPE svg PUBLIC "-//W3C//DTD SVG 1.1//EN" "http://www.w3.org/Graphics/SVG/1.1/DTD/svg11.dtd">
<svg version="1.1" id="Capa_1" xmlns="http://www.w3.org/2000/svg" xmlns:xlink="http://www.w3.org/1999/xlink" x="0px" y="0px"
	 viewBox="0 0 351 336" enable-background="new 0 0 351 336" xml:space="preserve">
<g>
	<path fill-rule="evenodd" clip-rule="evenodd" fill="#CA0B0F" d="M213.2,103.4c4.9,0,9.3-1.8,13-5.3c3.7-3.6,5.5-7.9,5.5-13
		c0-5.1-1.8-9.5-5.4-13.1c-3.6-3.6-8-5.5-13.1-5.5c-5.1,0-9.4,1.8-13,5.5c-3.6,3.6-5.4,8-5.4,13.1c0,5.1,1.8,9.5,5.3,13
		C203.6,101.6,208,103.4,213.2,103.4z"/>
	<path fill-rule="evenodd" clip-rule="evenodd" fill="#CA0B0F" d="M252.1,103.4c5.1,0,9.4-1.8,12.9-5.3c3.5-3.6,5.3-7.9,5.3-13
		c0-5-1.8-9.3-5.3-13c-3.5-3.7-7.9-5.6-12.9-5.6c-5.1,0-9.4,1.8-13.1,5.5c-3.6,3.6-5.4,8-5.4,13.1c0,5.1,1.8,9.5,5.3,13
		C242.4,101.6,246.8,103.4,252.1,103.4z"/>
	<path fill-rule="evenodd" clip-rule="evenodd" fill="#CA0B0F" d="M213.1,64.6c5.1,0,9.5-1.8,13.1-5.4c3.6-3.6,5.5-7.8,5.5-12.7
		c0-5.1-1.8-9.4-5.5-13c-3.6-3.6-8-5.4-13.1-5.4c-5.1,0-9.5,1.8-13,5.3c-3.6,3.5-5.3,7.9-5.3,13.1c0,4.9,1.7,9.1,5.2,12.7
		C203.5,62.7,207.9,64.6,213.1,64.6z"/>
	<path fill-rule="evenodd" clip-rule="evenodd" fill="#CA0B0F" d="M135.9,180.8c5.1,0,9.4-1.8,13.1-5.4c3.6-3.6,5.4-8,5.4-13.1
		s-1.8-9.4-5.3-12.9c-3.6-3.5-8-5.3-13.3-5.3c-5,0-9.3,1.7-12.9,5.2c-3.6,3.5-5.5,7.8-5.5,13c0,9.2-1.1,14.9-3.2,17.1
		c-2.2,2.1-7.8,3.2-17,3.2c-4.9,0-9.2,1.8-12.9,5.3c-3.7,3.5-5.5,7.9-5.5,12.9c0,5.1,1.8,9.4,5.4,13.1c3.6,3.6,8,5.4,13.1,5.4
		c5.1,0,9.4-1.8,12.9-5.3c3.6-3.5,5.3-7.9,5.3-13.2c0-9.1,1.1-14.7,3.2-16.9C120.9,181.8,126.6,180.8,135.9,180.8z"/>
	<path fill-rule="evenodd" clip-rule="evenodd" fill="#CA0B0F" d="M135.9,142.2c4.9,0,9.2-1.8,12.9-5.4c3.7-3.6,5.5-7.9,5.5-13
		c0-5.1-1.8-9.5-5.5-13.1c-3.6-3.6-8-5.5-13.1-5.5c-5.1,0-9.4,1.8-13,5.4c-3.6,3.6-5.3,8-5.3,13.2c0,9.1-1.1,14.8-3.2,17
		c-2.2,2.2-7.8,3.3-17,3.3c-5.1,0-9.4,1.8-13,5.4c-3.6,3.6-5.4,8-5.4,13.1c0,5.1,1.8,9.4,5.3,12.9c3.5,3.6,7.9,5.3,13.2,5.3
		c5.1,0,9.4-1.8,12.9-5.3c3.6-3.5,5.3-7.9,5.3-12.9c0-9.2,1.1-14.9,3.2-17.1C120.9,143.3,126.6,142.2,135.9,142.2z"/>
	<path fill-rule="evenodd" clip-rule="evenodd" fill="#CA0B0F" d="M135.9,64.6c5.1,0,9.4-1.8,13.1-5.4c3.6-3.6,5.4-7.9,5.4-12.9
		c0-5-1.8-9.3-5.5-12.9c-3.6-3.6-8-5.4-13.1-5.4c-5.1,0-9.4,1.8-13,5.3c-3.6,3.5-5.3,7.9-5.3,13.1c0,9-1.1,14.6-3.2,16.8
		c-2.2,2.2-7.8,3.2-17,3.2c-5.1,0-9.4,1.8-13,5.5c-3.6,3.6-5.4,8-5.4,13.1c0,5.1,1.8,9.5,5.3,13c3.5,3.6,7.9,5.3,13.2,5.3
		c5.1,0,9.4-1.8,12.9-5.4c3.6-3.6,5.3-7.9,5.3-13.1c0-9.2,1.1-14.9,3.2-17.1C120.9,65.7,126.6,64.6,135.9,64.6z"/>
	<path fill-rule="evenodd" clip-rule="evenodd" fill="#CA0B0F" d="M97.2,105.2c-4.9,0-9.2,1.8-12.9,5.4c-3.7,3.6-5.5,7.9-5.5,13
		c0,5.1,1.8,9.5,5.4,13.1c3.6,3.7,8,5.5,13.1,5.5c5.1,0,9.4-1.8,12.9-5.4c3.6-3.6,5.3-8,5.3-13.2c0-9.1,1.1-14.8,3.2-17
		c2.2-2.2,7.8-3.3,17.1-3.3c5.1,0,9.4-1.8,13.1-5.4c3.6-3.6,5.4-8,5.4-13v-1.6c0-8.5,1.1-13.7,3.2-15.7c2.2-2,7.9-3,17.1-3
		c5.1,0,9.4-1.8,12.9-5.3c3.5-3.5,5.3-7.8,5.3-12.8c0-4.9-1.8-9.2-5.3-12.9c-3.5-3.7-7.9-5.5-12.9-5.5c-5.1,0-9.4,1.8-13.1,5.4
		c-3.6,3.6-5.4,7.9-5.4,13c0,9-1.1,14.6-3.3,16.8c-2.2,2.2-7.9,3.2-17.2,3.2c-5.1,0-9.4,1.8-13,5.3c-3.6,3.5-5.3,7.9-5.3,12.9v1.9
		c0,8.3-1.1,13.5-3.3,15.6C111.8,104.2,106.2,105.2,97.2,105.2z"/>
	<path fill-rule="evenodd" clip-rule="evenodd" fill="#CA0B0F" d="M135.9,219.3c5.1,0,9.4-1.8,13.1-5.4c3.6-3.6,5.4-8,5.4-13.1
		c0-5.1-1.8-9.4-5.3-12.9c-3.6-3.5-8-5.3-13.3-5.3c-5,0-9.3,1.7-12.9,5.2c-3.6,3.5-5.5,7.8-5.5,13.1c0,9.2-1.1,14.9-3.2,17.1
		c-2.2,2.2-7.8,3.2-17,3.2c-4.9,0-9.2,1.8-12.9,5.3c-3.7,3.5-5.5,7.8-5.5,12.9s1.8,9.4,5.4,13.1c3.6,3.6,8,5.4,13.1,5.4
		c5.1,0,9.4-1.8,12.9-5.3c3.6-3.5,5.3-7.9,5.3-13.2c0-9.1,1.1-14.7,3.2-16.9C120.9,220.4,126.6,219.3,135.9,219.3z"/>
</g>
<g>
	<path fill="#CA0B0F" d="M30.9,300.4l-5.6-9.8h-4.2v9.8h-3v-23.2h7.3c4.7,0,8.1,1.7,8.1,6.5c0,3.6-2,5.8-5.2,6.6l5.9,10.1H30.9z
		 M21.1,288.2H25c3.6,0,5.6-1.5,5.6-4.5c0-3-2-4.1-5.6-4.1h-3.9V288.2z"/>
	<path fill="#CA0B0F" d="M37.2,288.7c0-7.4,4.1-11.9,9.9-11.9c5.8,0,9.9,4.5,9.9,11.9c0,7.5-4.1,12.1-9.9,12.1
		C41.3,300.8,37.2,296.1,37.2,288.7z M54,288.7c0-5.8-2.7-9.3-6.9-9.3c-4.2,0-6.9,3.6-6.9,9.3c0,5.8,2.7,9.5,6.9,9.5
		C51.2,298.2,54,294.5,54,288.7z"/>
	<path fill="#CA0B0F" d="M60.4,295.6c1.1,1.8,2.4,2.6,4,2.6c2.5,0,3.7-1.4,3.7-4.9v-16.1h2.9v16.4c0,4-1.8,7.2-6.4,7.2
		c-2.9,0-5-1.3-6.4-3.7L60.4,295.6z"/>
	<path fill="#CA0B0F" d="M75.8,288.7c0-7.4,4.1-11.9,9.9-11.9c5.8,0,9.9,4.5,9.9,11.9c0,7.5-4.1,12.1-9.9,12.1
		C79.9,300.8,75.8,296.1,75.8,288.7z M92.6,288.7c0-5.8-2.7-9.3-6.9-9.3c-4.2,0-6.9,3.6-6.9,9.3c0,5.8,2.7,9.5,6.9,9.5
		C89.9,298.2,92.6,294.5,92.6,288.7z"/>
	<path fill="#6C6F70" d="M107.7,277.1h5.4c7.2,0,10.6,4.5,10.6,11.6c0,7.1-3.4,11.7-10.6,11.7h-5.4V277.1z M112.9,299
		c6.3,0,9.1-4.3,9.1-10.3c0-6-2.8-10.2-9.1-10.2h-3.6V299H112.9z"/>
	<path fill="#6C6F70" d="M128.9,277.1h1.6v23.3h-1.6V277.1z"/>
	<path fill="#6C6F70" d="M136.3,296.2c1.7,1.9,4.1,3.1,6.9,3.1c3.5,0,5.8-1.9,5.8-4.7c0-2.9-1.9-3.9-4.2-4.9l-3.5-1.6
		c-2-0.9-4.7-2.3-4.7-5.8c0-3.4,2.9-5.7,6.7-5.7c2.8,0,5.1,1.3,6.5,2.8l-1,1.1c-1.3-1.4-3.2-2.4-5.5-2.4c-3.1,0-5.1,1.6-5.1,4.2
		c0,2.7,2.3,3.7,4,4.5l3.5,1.6c2.6,1.2,4.9,2.6,4.9,6.2c0,3.6-2.9,6.3-7.5,6.3c-3.4,0-6-1.4-7.8-3.5L136.3,296.2z"/>
	<path fill="#6C6F70" d="M155.3,277.1H168v1.4h-11.1v8.8h9.3v1.4h-9.3V299h11.4v1.4h-13.1V277.1z"/>
	<path fill="#6C6F70" d="M173.2,277.1h1.7l9.8,16.4l2.6,4.6h0.1c-0.1-2.3-0.2-4.5-0.2-6.8v-14.3h1.5v23.3H187l-9.8-16.4l-2.6-4.6
		h-0.1c0.1,2.2,0.2,4.3,0.2,6.6v14.4h-1.5V277.1z M179,273.1c-0.7,0-1.3,0.8-1.4,2h-1c0.1-1.6,0.9-3.3,2.5-3.3c1.9,0,2.8,2,4.2,2
		c0.7,0,1.3-0.8,1.4-2h1c-0.1,1.6-0.9,3.3-2.5,3.3C181.3,275.1,180.4,273.1,179,273.1z"/>
	<path fill="#6C6F70" d="M193.9,288.6c0-7.3,4-12,9.6-12c5.6,0,9.6,4.6,9.6,12c0,7.4-4,12.2-9.6,12.2
		C197.9,300.8,193.9,296,193.9,288.6z M211.4,288.6c0-6.4-3.2-10.5-7.9-10.5c-4.7,0-7.9,4.1-7.9,10.5c0,6.5,3.2,10.7,7.9,10.7
		C208.2,299.3,211.4,295.1,211.4,288.6z"/>
	<path fill="#6C6F70" d="M225.2,277.1h1.6v23.3h-1.6V277.1z"/>
	<path fill="#6C6F70" d="M233.4,277.1h2.3l4.9,13.7l1.8,5.2h0.1l1.8-5.2l4.8-13.7h2.3v23.3h-1.6v-15.3c0-1.9,0.1-4.3,0.2-6.3H250
		l-1.8,5.1l-5,13.9h-1.4l-5-13.9l-1.8-5.1h-0.1c0.1,1.9,0.2,4.4,0.2,6.3v15.3h-1.5V277.1z"/>
	<path fill="#6C6F70" d="M268.6,292.4h-9.2l-2.7,8H255l8.2-23.3h1.6l8.2,23.3h-1.7L268.6,292.4z M268.1,291l-1.5-4.3
		c-0.9-2.8-1.8-5.2-2.6-8.1h-0.1c-0.8,2.9-1.6,5.3-2.6,8.1l-1.5,4.3H268.1z"/>
	<path fill="#6C6F70" d="M284.9,276.7c3.1,0,5.1,1.5,6.3,2.8l-1,1.1c-1.2-1.3-2.8-2.4-5.4-2.4c-5.3,0-8.6,4.1-8.6,10.5
		c0,6.5,3.1,10.6,8.4,10.6c2.1,0,4.1-0.6,5.2-1.8v-7.2h-5.5v-1.4h7.1v9.2c-1.4,1.6-3.9,2.6-6.9,2.6c-6,0-10-4.7-10-12.1
		C274.6,281.3,278.8,276.7,284.9,276.7z"/>
	<path fill="#6C6F70" d="M297.2,277.1h12.7v1.4h-11.1v8.8h9.3v1.4h-9.3V299h11.4v1.4h-13.1V277.1z"/>
	<path fill="#6C6F70" d="M315.1,277.1h1.7l9.8,16.4l2.6,4.6h0.1c-0.1-2.3-0.2-4.5-0.2-6.8v-14.3h1.5v23.3H329l-9.8-16.4l-2.6-4.6
		h-0.1c0.1,2.2,0.2,4.3,0.2,6.6v14.4h-1.5V277.1z"/>
</g>
<g>
	<g>
		<path fill="#6C6F70" d="M109.7,311.3c0.9,0,1.5,0.3,2.3,0.9l0-1.4v-3.2h0.7v11.4H112l-0.1-1h0c-0.6,0.6-1.5,1.2-2.5,1.2
			c-1.9,0-3.2-1.4-3.2-4C106.3,312.8,107.8,311.3,109.7,311.3z M109.5,318.7c0.8,0,1.6-0.4,2.4-1.3v-4.5c-0.8-0.7-1.5-1-2.2-1
			c-1.5,0-2.7,1.5-2.7,3.4C107,317.3,107.9,318.7,109.5,318.7z"/>
		<path fill="#6C6F70" d="M115.3,309c0-0.4,0.3-0.6,0.6-0.6c0.3,0,0.6,0.2,0.6,0.6c0,0.4-0.3,0.6-0.6,0.6
			C115.6,309.6,115.3,309.3,115.3,309z M115.6,311.4h0.7v7.6h-0.7V311.4z"/>
		<path fill="#6C6F70" d="M118.7,317.7c0.7,0.5,1.3,1,2.4,1c1.2,0,1.8-0.7,1.8-1.5c0-1-1-1.4-1.9-1.7c-1.2-0.4-2.4-0.9-2.4-2.2
			c0-1.1,0.9-2,2.5-2c0.8,0,1.6,0.3,2.2,0.8l-0.4,0.5c-0.5-0.4-1-0.7-1.8-0.7c-1.2,0-1.7,0.7-1.7,1.4c0,0.8,0.9,1.2,1.8,1.5
			c1.2,0.4,2.5,0.8,2.5,2.3c0,1.1-0.9,2.1-2.6,2.1c-1.1,0-2.1-0.5-2.8-1.1L118.7,317.7z"/>
		<path fill="#6C6F70" d="M128.3,311.3c1.8,0,2.9,1.3,2.9,3.5c0,0.2,0,0.4,0,0.6h-5.5c0,1.9,1.2,3.3,2.9,3.3c0.8,0,1.5-0.3,2.1-0.7
			l0.3,0.5c-0.6,0.4-1.3,0.7-2.4,0.7c-2,0-3.5-1.5-3.5-4S126.6,311.3,128.3,311.3z M130.6,314.8c0-2-0.9-3-2.2-3
			c-1.3,0-2.5,1.1-2.6,3H130.6z"/>
		<path fill="#6C6F70" d="M133.3,311.4h0.6l0.1,1.2h0c0.8-0.8,1.6-1.4,2.6-1.4c1.6,0,2.3,1,2.3,2.9v4.9h-0.7v-4.8
			c0-1.6-0.5-2.4-1.8-2.4c-0.9,0-1.6,0.5-2.5,1.4v5.8h-0.7V311.4z M135.5,308.4c0.8,0,1.2,0.9,1.8,0.9c0.3,0,0.5-0.3,0.6-0.9h0.5
			c0,0.7-0.3,1.4-1.1,1.4c-0.8,0-1.2-0.9-1.8-0.9c-0.4,0-0.5,0.3-0.6,0.9h-0.5C134.4,309.2,134.7,308.4,135.5,308.4z"/>
		<path fill="#6C6F70" d="M144.6,311.3c1.8,0,3.4,1.5,3.4,4c0,2.5-1.6,4-3.4,4c-1.8,0-3.4-1.5-3.4-4
			C141.2,312.7,142.8,311.3,144.6,311.3z M144.6,318.7c1.5,0,2.7-1.4,2.7-3.4c0-2-1.2-3.4-2.7-3.4s-2.7,1.4-2.7,3.4
			C141.9,317.3,143,318.7,144.6,318.7z"/>
		<path fill="#6C6F70" d="M150.6,313.2c0.3,0,0.7,0.3,0.7,0.7c0,0.4-0.3,0.7-0.7,0.7c-0.4,0-0.7-0.3-0.7-0.7
			C149.9,313.5,150.2,313.2,150.6,313.2z"/>
		<path fill="#6C6F70" d="M153.5,309c0-0.4,0.3-0.6,0.6-0.6c0.4,0,0.6,0.2,0.6,0.6c0,0.4-0.3,0.6-0.6,0.6
			C153.8,309.6,153.5,309.3,153.5,309z M153.8,311.4h0.7v7.6h-0.7V311.4z"/>
		<path fill="#6C6F70" d="M157.4,311.4h0.6l0.1,1.2h0c0.8-0.8,1.6-1.4,2.6-1.4c1.6,0,2.3,1,2.3,2.9v4.9h-0.7v-4.8
			c0-1.6-0.5-2.4-1.8-2.4c-0.9,0-1.6,0.5-2.5,1.4v5.8h-0.7V311.4z"/>
		<path fill="#6C6F70" d="M166.1,312h-1.2v-0.5l1.2-0.1l0.1-2.2h0.6v2.2h2.2v0.6h-2.2v5c0,1,0.2,1.6,1.3,1.6c0.3,0,0.7-0.1,1-0.2
			l0.2,0.6c-0.4,0.2-0.9,0.3-1.2,0.3c-1.5,0-1.9-0.9-1.9-2.3V312z"/>
		<path fill="#6C6F70" d="M173.4,311.3c1.8,0,2.9,1.3,2.9,3.5c0,0.2,0,0.4,0,0.6h-5.5c0,1.9,1.2,3.3,2.9,3.3c0.8,0,1.5-0.3,2.1-0.7
			l0.3,0.5c-0.6,0.4-1.3,0.7-2.4,0.7c-2,0-3.5-1.5-3.5-4S171.7,311.3,173.4,311.3z M175.7,314.8c0-2-0.9-3-2.2-3
			c-1.3,0-2.5,1.1-2.6,3H175.7z"/>
		<path fill="#6C6F70" d="M178.4,311.4h0.6l0.1,1.4h0c0.5-0.9,1.3-1.6,2.2-1.6c0.3,0,0.5,0,0.8,0.2l-0.2,0.6
			c-0.3-0.1-0.4-0.1-0.7-0.1c-0.7,0-1.5,0.5-2.1,2v5.2h-0.7V311.4z"/>
		<path fill="#6C6F70" d="M183.2,309c0-0.4,0.3-0.6,0.6-0.6c0.4,0,0.6,0.2,0.6,0.6c0,0.4-0.3,0.6-0.6,0.6
			C183.5,309.6,183.2,309.3,183.2,309z M183.4,311.4h0.7v7.6h-0.7V311.4z"/>
		<path fill="#6C6F70" d="M189.9,311.3c1.8,0,3.4,1.5,3.4,4c0,2.5-1.6,4-3.4,4c-1.8,0-3.4-1.5-3.4-4
			C186.5,312.7,188,311.3,189.9,311.3z M189.9,318.7c1.5,0,2.7-1.4,2.7-3.4c0-2-1.2-3.4-2.7-3.4s-2.7,1.4-2.7,3.4
			C187.2,317.3,188.3,318.7,189.9,318.7z"/>
		<path fill="#6C6F70" d="M195.6,311.4h0.6l0.1,1.4h0c0.5-0.9,1.3-1.6,2.2-1.6c0.3,0,0.5,0,0.8,0.2l-0.2,0.6
			c-0.3-0.1-0.4-0.1-0.7-0.1c-0.7,0-1.5,0.5-2.1,2v5.2h-0.7V311.4z"/>
		<path fill="#6C6F70" d="M200.4,309c0-0.4,0.3-0.6,0.6-0.6c0.3,0,0.6,0.2,0.6,0.6c0,0.4-0.3,0.6-0.6,0.6
			C200.7,309.6,200.4,309.3,200.4,309z M200.6,311.4h0.7v7.6h-0.7V311.4z"/>
		<path fill="#6C6F70" d="M203.7,317.7c0.7,0.5,1.3,1,2.4,1c1.2,0,1.8-0.7,1.8-1.5c0-1-1-1.4-1.9-1.7c-1.2-0.4-2.4-0.9-2.4-2.2
			c0-1.1,0.9-2,2.5-2c0.8,0,1.6,0.3,2.2,0.8l-0.4,0.5c-0.5-0.4-1-0.7-1.8-0.7c-1.2,0-1.7,0.7-1.7,1.4c0,0.8,0.9,1.2,1.8,1.5
			c1.2,0.4,2.5,0.8,2.5,2.3c0,1.1-0.9,2.1-2.6,2.1c-1.1,0-2.1-0.5-2.8-1.1L203.7,317.7z"/>
		<path fill="#6C6F70" d="M210.7,311.4h0.6l0.1,1.2h0c0.7-0.8,1.6-1.4,2.4-1.4c1.2,0,1.8,0.6,2.1,1.6c0.9-1,1.7-1.6,2.6-1.6
			c1.5,0,2.3,1,2.3,2.9v4.9h-0.7v-4.8c0-1.6-0.5-2.4-1.7-2.4c-0.7,0-1.4,0.5-2.3,1.4v5.8h-0.7v-4.8c0-1.6-0.5-2.4-1.7-2.4
			c-0.7,0-1.4,0.5-2.3,1.4v5.8h-0.7V311.4z"/>
		<path fill="#6C6F70" d="M226.4,311.3c1.8,0,3.4,1.5,3.4,4c0,2.5-1.6,4-3.4,4c-1.8,0-3.4-1.5-3.4-4
			C223,312.7,224.6,311.3,226.4,311.3z M226.4,318.7c1.5,0,2.7-1.4,2.7-3.4c0-2-1.2-3.4-2.7-3.4s-2.7,1.4-2.7,3.4
			C223.8,317.3,224.9,318.7,226.4,318.7z"/>
		<path fill="#6C6F70" d="M232.5,313.2c0.3,0,0.7,0.3,0.7,0.7c0,0.4-0.3,0.7-0.7,0.7c-0.4,0-0.7-0.3-0.7-0.7
			C231.8,313.5,232.1,313.2,232.5,313.2z"/>
		<path fill="#6C6F70" d="M235.7,311.4h0.6l0.1,1.2h0c0.7-0.8,1.6-1.4,2.4-1.4c1.2,0,1.8,0.6,2.1,1.6c0.9-1,1.7-1.6,2.6-1.6
			c1.5,0,2.3,1,2.3,2.9v4.9h-0.7v-4.8c0-1.6-0.5-2.4-1.7-2.4c-0.7,0-1.4,0.5-2.3,1.4v5.8h-0.7v-4.8c0-1.6-0.5-2.4-1.7-2.4
			c-0.7,0-1.4,0.5-2.3,1.4v5.8h-0.7V311.4z"/>
		<path fill="#6C6F70" d="M251.3,311.3c1.8,0,2.9,1.3,2.9,3.5c0,0.2,0,0.4,0,0.6h-5.5c0,1.9,1.2,3.3,2.9,3.3c0.8,0,1.5-0.3,2.1-0.7
			l0.3,0.5c-0.6,0.4-1.3,0.7-2.4,0.7c-2,0-3.5-1.5-3.5-4S249.6,311.3,251.3,311.3z M253.5,314.8c0-2-0.9-3-2.2-3
			c-1.3,0-2.5,1.1-2.6,3H253.5z"/>
		<path fill="#6C6F70" d="M256.3,311.4h0.6l0.1,1.4h0c0.5-0.9,1.3-1.6,2.2-1.6c0.3,0,0.5,0,0.8,0.2l-0.2,0.6
			c-0.3-0.1-0.4-0.1-0.7-0.1c-0.7,0-1.5,0.5-2.1,2v5.2h-0.7V311.4z"/>
		<path fill="#6C6F70" d="M264,311.3c1.1,0,1.7,0.5,2.2,0.9l-0.4,0.5c-0.5-0.5-1.1-0.8-1.8-0.8c-1.6,0-2.8,1.4-2.8,3.4
			c0,2,1.1,3.4,2.8,3.4c0.8,0,1.5-0.4,2-0.9l0.4,0.5c-0.7,0.6-1.5,1-2.4,1c-2,0-3.5-1.5-3.5-4C260.5,312.7,262.1,311.3,264,311.3z"
			/>
		<path fill="#6C6F70" d="M268.3,307.6h0.7v3.3v1.7c0.8-0.8,1.6-1.4,2.6-1.4c1.6,0,2.3,1,2.3,2.9v4.9h-0.7v-4.8
			c0-1.6-0.5-2.4-1.8-2.4c-0.9,0-1.6,0.5-2.5,1.4v5.8h-0.7V307.6z"/>
		<path fill="#6C6F70" d="M281.2,314.3c0-1.2-0.3-2.4-1.8-2.4c-1,0-1.9,0.5-2.4,0.9l-0.3-0.5c0.5-0.4,1.6-1,2.8-1
			c1.8,0,2.4,1.3,2.4,2.9v4.9h-0.6l-0.1-1h0c-0.8,0.6-1.7,1.2-2.7,1.2c-1.2,0-2.2-0.7-2.2-2.1C276.3,315.5,277.8,314.7,281.2,314.3z
			 M278.6,318.7c0.9,0,1.7-0.4,2.6-1.2v-2.6c-3.1,0.4-4.2,1.1-4.2,2.3C277,318.2,277.7,318.7,278.6,318.7z"/>
		<path fill="#6C6F70" d="M284.6,311.4h0.6l0.1,1.2h0c0.8-0.8,1.6-1.4,2.6-1.4c1.6,0,2.3,1,2.3,2.9v4.9h-0.7v-4.8
			c0-1.6-0.5-2.4-1.8-2.4c-0.9,0-1.6,0.5-2.5,1.4v5.8h-0.7V311.4z"/>
		<path fill="#6C6F70" d="M295.9,311.3c0.9,0,1.5,0.3,2.3,0.9l0-1.4v-3.2h0.7v11.4h-0.6l-0.1-1h0c-0.6,0.6-1.5,1.2-2.5,1.2
			c-1.9,0-3.2-1.4-3.2-4C292.5,312.8,294,311.3,295.9,311.3z M295.7,318.7c0.8,0,1.6-0.4,2.4-1.3v-4.5c-0.8-0.7-1.5-1-2.2-1
			c-1.5,0-2.7,1.5-2.7,3.4C293.2,317.3,294.1,318.7,295.7,318.7z"/>
		<path fill="#6C6F70" d="M301.5,309c0-0.4,0.3-0.6,0.6-0.6c0.4,0,0.6,0.2,0.6,0.6c0,0.4-0.3,0.6-0.6,0.6
			C301.8,309.6,301.5,309.3,301.5,309z M301.8,311.4h0.7v7.6h-0.7V311.4z"/>
		<path fill="#6C6F70" d="M304.9,317.7c0.7,0.5,1.3,1,2.4,1c1.2,0,1.8-0.7,1.8-1.5c0-1-1-1.4-1.9-1.7c-1.2-0.4-2.4-0.9-2.4-2.2
			c0-1.1,0.9-2,2.5-2c0.8,0,1.6,0.3,2.2,0.8l-0.4,0.5c-0.5-0.4-1.1-0.7-1.8-0.7c-1.2,0-1.7,0.7-1.7,1.4c0,0.8,0.9,1.2,1.8,1.5
			c1.2,0.4,2.5,0.8,2.5,2.3c0,1.1-0.9,2.1-2.6,2.1c-1.1,0-2.1-0.5-2.8-1.1L304.9,317.7z"/>
		<path fill="#6C6F70" d="M311.6,309c0-0.4,0.3-0.6,0.6-0.6c0.4,0,0.6,0.2,0.6,0.6c0,0.4-0.3,0.6-0.6,0.6
			C311.9,309.6,311.6,309.3,311.6,309z M311.9,311.4h0.7v7.6h-0.7V311.4z"/>
		<path fill="#6C6F70" d="M315.5,311.4h0.6l0.1,1.2h0c0.8-0.8,1.6-1.4,2.6-1.4c1.6,0,2.3,1,2.3,2.9v4.9h-0.7v-4.8
			c0-1.6-0.5-2.4-1.8-2.4c-0.9,0-1.6,0.5-2.5,1.4v5.8h-0.7V311.4z"/>
		<path fill="#6C6F70" d="M324.5,318.8L324.5,318.8c-0.4-0.3-0.7-0.7-0.7-1.3c0-0.7,0.5-1.2,0.8-1.4V316c-0.5-0.4-1-1.2-1-2.1
			c0-1.6,1.2-2.7,2.7-2.7c0.4,0,0.8,0.1,1,0.2h2.6v0.6h-1.8c0.5,0.4,0.8,1.1,0.8,1.9c0,1.6-1.2,2.7-2.7,2.7c-0.4,0-0.9-0.1-1.3-0.3
			c-0.3,0.3-0.6,0.6-0.6,1.1c0,0.6,0.3,1,1.5,1h1.6c1.7,0,2.5,0.5,2.5,1.8c0,1.3-1.4,2.6-3.6,2.6c-1.9,0-3.1-0.8-3.1-2.1
			C323.3,320,323.8,319.3,324.5,318.8z M326.5,322.2c1.7,0,2.8-1,2.8-1.9c0-0.8-0.6-1.2-1.8-1.2H326c-0.2,0-0.6,0-1-0.1
			c-0.7,0.5-1,1.1-1,1.6C324,321.5,324.9,322.2,326.5,322.2z M328.3,313.9c0-1.3-0.9-2.1-2-2.1s-2,0.8-2,2.1c0,1.3,0.9,2.1,2,2.1
			C327.4,316.1,328.3,315.2,328.3,313.9z"/>
	</g>
</g>
<text transform="matrix(1 0 0 1 1069.9093 -383.0388)"><tspan x="0" y="0" font-family="'SourceSansPro-Light'" font-size="36.2395">logo 2015</tspan><tspan x="0" y="43.5" font-family="'SourceSansPro-Light'" font-size="36.2395">horizontal</tspan></text>
<g>
	<path fill-rule="evenodd" clip-rule="evenodd" fill="#CA0B0F" d="M1136.7-12.5c2.2,0,4.1-0.8,5.8-2.4c1.6-1.6,2.5-3.5,2.5-5.8
		c0-2.3-0.8-4.3-2.4-5.9c-1.6-1.6-3.6-2.4-5.9-2.4c-2.3,0-4.2,0.8-5.8,2.4c-1.6,1.6-2.4,3.6-2.4,5.9c0,2.3,0.8,4.2,2.4,5.8
		C1132.4-13.3,1134.4-12.5,1136.7-12.5z"/>
	<path fill-rule="evenodd" clip-rule="evenodd" fill="#CA0B0F" d="M1154.1-12.5c2.3,0,4.2-0.8,5.8-2.4c1.6-1.6,2.4-3.5,2.4-5.8
		c0-2.2-0.8-4.2-2.4-5.8c-1.6-1.7-3.5-2.5-5.8-2.5c-2.3,0-4.2,0.8-5.9,2.4c-1.6,1.6-2.4,3.6-2.4,5.9c0,2.3,0.8,4.2,2.4,5.8
		C1149.8-13.3,1151.8-12.5,1154.1-12.5z"/>
	<path fill-rule="evenodd" clip-rule="evenodd" fill="#CA0B0F" d="M1136.7-29.9c2.3,0,4.3-0.8,5.9-2.4c1.6-1.6,2.4-3.5,2.4-5.7
		c0-2.3-0.8-4.2-2.4-5.8c-1.6-1.6-3.6-2.4-5.9-2.4c-2.3,0-4.2,0.8-5.8,2.4c-1.6,1.6-2.4,3.5-2.4,5.9c0,2.2,0.8,4.1,2.3,5.7
		C1132.3-30.7,1134.3-29.9,1136.7-29.9z"/>
	<path fill-rule="evenodd" clip-rule="evenodd" fill="#CA0B0F" d="M1102,22.2c2.3,0,4.2-0.8,5.8-2.4c1.6-1.6,2.4-3.6,2.4-5.8
		s-0.8-4.2-2.4-5.8c-1.6-1.6-3.6-2.4-5.9-2.4c-2.2,0-4.1,0.8-5.8,2.3c-1.6,1.5-2.5,3.5-2.5,5.8c0,4.1-0.5,6.7-1.4,7.7
		c-1,1-3.5,1.4-7.6,1.4c-2.2,0-4.1,0.8-5.8,2.4c-1.7,1.6-2.5,3.5-2.5,5.8c0,2.3,0.8,4.2,2.4,5.8c1.6,1.6,3.6,2.4,5.9,2.4
		c2.3,0,4.2-0.8,5.8-2.4c1.6-1.6,2.4-3.6,2.4-5.9c0-4.1,0.5-6.6,1.4-7.6C1095.3,22.7,1097.9,22.2,1102,22.2z"/>
	<path fill-rule="evenodd" clip-rule="evenodd" fill="#CA0B0F" d="M1102,4.9c2.2,0,4.1-0.8,5.8-2.4c1.7-1.6,2.5-3.5,2.5-5.8
		c0-2.3-0.8-4.3-2.4-5.9c-1.6-1.6-3.6-2.4-5.9-2.4c-2.3,0-4.2,0.8-5.8,2.4c-1.6,1.6-2.4,3.6-2.4,5.9c0,4.1-0.5,6.6-1.4,7.6
		c-1,1-3.5,1.5-7.6,1.5c-2.3,0-4.2,0.8-5.8,2.4c-1.6,1.6-2.4,3.6-2.4,5.9c0,2.3,0.8,4.2,2.4,5.8c1.6,1.6,3.5,2.4,5.9,2.4
		c2.3,0,4.2-0.8,5.8-2.4c1.6-1.6,2.4-3.5,2.4-5.8c0-4.1,0.5-6.7,1.4-7.7C1095.3,5.4,1097.9,4.9,1102,4.9z"/>
	<path fill-rule="evenodd" clip-rule="evenodd" fill="#CA0B0F" d="M1102-29.9c2.3,0,4.2-0.8,5.8-2.4c1.6-1.6,2.4-3.5,2.4-5.8
		c0-2.2-0.8-4.2-2.4-5.8c-1.6-1.6-3.6-2.4-5.9-2.4c-2.3,0-4.2,0.8-5.8,2.4c-1.6,1.6-2.4,3.5-2.4,5.9c0,4-0.5,6.6-1.4,7.5
		c-1,1-3.5,1.4-7.6,1.4c-2.3,0-4.2,0.8-5.8,2.4c-1.6,1.6-2.4,3.6-2.4,5.9c0,2.3,0.8,4.2,2.4,5.8c1.6,1.6,3.5,2.4,5.9,2.4
		c2.3,0,4.2-0.8,5.8-2.4c1.6-1.6,2.4-3.6,2.4-5.9c0-4.1,0.5-6.7,1.4-7.7C1095.3-29.4,1097.9-29.9,1102-29.9z"/>
	<path fill-rule="evenodd" clip-rule="evenodd" fill="#CA0B0F" d="M1084.7-11.7c-2.2,0-4.1,0.8-5.8,2.4c-1.7,1.6-2.5,3.5-2.5,5.8
		c0,2.3,0.8,4.3,2.4,5.9c1.6,1.6,3.6,2.5,5.9,2.5c2.3,0,4.2-0.8,5.8-2.4c1.6-1.6,2.4-3.6,2.4-5.9c0-4.1,0.5-6.6,1.4-7.6
		c1-1,3.5-1.5,7.7-1.5c2.3,0,4.2-0.8,5.8-2.4c1.6-1.6,2.4-3.6,2.4-5.8v-0.7c0-3.8,0.5-6.1,1.4-7c1-0.9,3.5-1.3,7.7-1.3
		c2.3,0,4.2-0.8,5.8-2.4c1.6-1.6,2.4-3.5,2.4-5.8c0-2.2-0.8-4.1-2.4-5.8c-1.6-1.6-3.5-2.5-5.8-2.5c-2.3,0-4.2,0.8-5.9,2.4
		c-1.6,1.6-2.4,3.5-2.4,5.8c0,4-0.5,6.6-1.5,7.5c-1,1-3.5,1.4-7.7,1.4c-2.3,0-4.2,0.8-5.8,2.4c-1.6,1.6-2.4,3.5-2.4,5.8v0.8
		c0,3.7-0.5,6.1-1.5,7C1091.3-12.1,1088.7-11.7,1084.7-11.7z"/>
	<path fill-rule="evenodd" clip-rule="evenodd" fill="#CA0B0F" d="M1102,39.5c2.3,0,4.2-0.8,5.8-2.4c1.6-1.6,2.4-3.6,2.4-5.8
		c0-2.3-0.8-4.2-2.4-5.8c-1.6-1.6-3.6-2.4-5.9-2.4c-2.2,0-4.1,0.8-5.8,2.3c-1.6,1.6-2.5,3.5-2.5,5.9c0,4.1-0.5,6.7-1.4,7.7
		c-1,1-3.5,1.4-7.6,1.4c-2.2,0-4.1,0.8-5.8,2.4c-1.7,1.6-2.5,3.5-2.5,5.8s0.8,4.2,2.4,5.8c1.6,1.6,3.6,2.4,5.9,2.4
		c2.3,0,4.2-0.8,5.8-2.4c1.6-1.6,2.4-3.6,2.4-5.9c0-4.1,0.5-6.6,1.4-7.6C1095.3,40,1097.9,39.5,1102,39.5z"/>
</g>
<g>
	<path fill="#CA0B0F" d="M1193.7,11.9l-8.4-14.6h-6.2v14.6h-4.4v-34.7h10.9c7,0,12.1,2.5,12.1,9.7c0,5.4-3.1,8.6-7.8,9.8l8.8,15.1
		H1193.7z M1179.1-6.4h5.8c5.4,0,8.4-2.2,8.4-6.7c0-4.5-3-6.2-8.4-6.2h-5.8V-6.4z"/>
	<path fill="#CA0B0F" d="M1203.1-5.6c0-11.1,6.1-17.8,14.9-17.8c8.7,0,14.8,6.8,14.8,17.8c0,11.2-6.1,18.1-14.8,18.1
		C1209.2,12.5,1203.1,5.5,1203.1-5.6z M1228.2-5.6c0-8.6-4.1-14-10.3-14c-6.2,0-10.3,5.3-10.3,14c0,8.7,4.1,14.3,10.3,14.3
		C1224.1,8.6,1228.2,3,1228.2-5.6z"/>
	<path fill="#CA0B0F" d="M1237.9,4.7c1.6,2.7,3.5,3.9,6,3.9c3.7,0,5.6-2.1,5.6-7.4v-24.1h4.4V1.6c0,6-2.8,10.8-9.6,10.8
		c-4.4,0-7.5-1.9-9.5-5.6L1237.9,4.7z"/>
	<path fill="#CA0B0F" d="M1260.9-5.6c0-11.1,6.1-17.8,14.9-17.8c8.7,0,14.8,6.8,14.8,17.8c0,11.2-6.1,18.1-14.8,18.1
		C1267,12.5,1260.9,5.5,1260.9-5.6z M1286-5.6c0-8.6-4.1-14-10.3-14c-6.2,0-10.3,5.3-10.3,14c0,8.7,4.1,14.3,10.3,14.3
		C1281.9,8.6,1286,3,1286-5.6z"/>
	<path fill="#6C6F70" d="M1308.6-23h8c10.7,0,15.9,6.8,15.9,17.3c0,10.6-5.1,17.6-15.8,17.6h-8.1V-23z M1316.4,9.8
		c9.5,0,13.6-6.4,13.6-15.5c0-9-4.1-15.2-13.6-15.2h-5.3V9.8H1316.4z"/>
	<path fill="#6C6F70" d="M1340.3-23h2.4v34.8h-2.4V-23z"/>
	<path fill="#6C6F70" d="M1351.5,5.6c2.5,2.9,6.2,4.7,10.3,4.7c5.3,0,8.7-2.9,8.7-7c0-4.3-2.9-5.8-6.3-7.3l-5.3-2.4
		c-3-1.3-7-3.5-7-8.7c0-5,4.3-8.6,10.1-8.6c4.2,0,7.6,1.9,9.7,4.2l-1.4,1.6c-2-2.2-4.8-3.6-8.3-3.6c-4.6,0-7.7,2.4-7.7,6.2
		c0,4,3.5,5.6,6,6.7l5.3,2.3c3.9,1.7,7.3,3.9,7.3,9.3c0,5.3-4.4,9.4-11.2,9.4c-5.1,0-9-2.2-11.7-5.2L1351.5,5.6z"/>
	<path fill="#6C6F70" d="M1379.8-23h19v2.1h-16.6v13.2h14v2.1h-14V9.7h17.1v2.1h-19.6V-23z"/>
	<path fill="#6C6F70" d="M1406.6-23h2.5l14.6,24.6l4,6.9h0.2c-0.2-3.4-0.3-6.8-0.3-10.2V-23h2.3v34.8h-2.5l-14.6-24.6l-4-6.9h-0.2
		c0.2,3.3,0.3,6.5,0.3,9.9v21.6h-2.3V-23z M1415.3-29c-1.1,0-2,1.2-2.2,3h-1.5c0.2-2.4,1.4-4.9,3.8-4.9c2.8,0,4.1,3,6.3,3
		c1.1,0,2-1.2,2.2-3h1.5c-0.2,2.3-1.4,4.9-3.8,4.9C1418.8-26,1417.5-29,1415.3-29z"/>
	<path fill="#6C6F70" d="M1437.6-5.7c0-11,6-17.9,14.4-17.9c8.4,0,14.3,6.9,14.3,17.9c0,11.1-6,18.2-14.3,18.2
		C1443.6,12.5,1437.6,5.4,1437.6-5.7z M1463.8-5.7c0-9.6-4.8-15.7-11.8-15.7c-7.1,0-11.8,6.1-11.8,15.7c0,9.7,4.8,16,11.8,16
		C1459,10.3,1463.8,4,1463.8-5.7z"/>
	<path fill="#6C6F70" d="M1484.5-23h2.4v34.8h-2.4V-23z"/>
	<path fill="#6C6F70" d="M1496.8-23h3.4l7.3,20.5l2.7,7.7h0.2l2.7-7.7l7.2-20.5h3.4v34.8h-2.4V-11c0-2.9,0.2-6.5,0.3-9.4h-0.2
		l-2.7,7.7L1511.4,8h-2.1l-7.5-20.8l-2.8-7.7h-0.2c0.1,2.9,0.3,6.6,0.3,9.4v22.9h-2.2V-23z"/>
	<path fill="#6C6F70" d="M1549.4-0.1h-13.8l-4.1,12h-2.5l12.3-34.8h2.4l12.3,34.8h-2.6L1549.4-0.1z M1548.7-2.2l-2.2-6.5
		c-1.4-4.1-2.6-7.8-3.9-12.1h-0.2c-1.2,4.3-2.4,7.9-3.9,12.1l-2.2,6.5H1548.7z"/>
	<path fill="#6C6F70" d="M1573.9-23.6c4.7,0,7.6,2.2,9.5,4.2l-1.4,1.6c-1.8-2-4.2-3.5-8-3.5c-8,0-12.9,6.1-12.9,15.8
		c0,9.7,4.7,15.9,12.6,15.9c3.1,0,6.1-1,7.8-2.6V-3.2h-8.3v-2.1h10.6V8.5c-2.2,2.3-5.8,4-10.3,4c-8.9,0-15-7-15-18.1
		C1558.4-16.7,1564.7-23.6,1573.9-23.6z"/>
	<path fill="#6C6F70" d="M1592.3-23h19v2.1h-16.6v13.2h14v2.1h-14V9.7h17.1v2.1h-19.6V-23z"/>
	<path fill="#6C6F70" d="M1619.1-23h2.5l14.6,24.6l4,6.9h0.2c-0.2-3.4-0.3-6.8-0.3-10.2V-23h2.3v34.8h-2.5l-14.6-24.6l-4-6.9h-0.2
		c0.2,3.3,0.3,6.5,0.3,9.9v21.6h-2.3V-23z"/>
	<g>
		<g>
			<path fill="#6C6F70" d="M1313.3,24.2c1.4,0,2.3,0.5,3.4,1.4l0-2.1v-4.7h1v17.1h-0.9l-0.1-1.5h-0.1c-0.9,0.9-2.2,1.8-3.7,1.8
				c-2.9,0-4.7-2.1-4.7-6C1308.3,26.6,1310.6,24.2,1313.3,24.2z M1313.1,35.3c1.3,0,2.4-0.7,3.6-1.9v-6.8c-1.2-1.1-2.2-1.5-3.3-1.5
				c-2.3,0-4,2.2-4,5.1C1309.4,33.3,1310.7,35.3,1313.1,35.3z"/>
			<path fill="#6C6F70" d="M1321.7,20.8c0-0.6,0.4-1,1-1c0.5,0,1,0.4,1,1c0,0.5-0.4,0.9-1,0.9C1322.2,21.8,1321.7,21.4,1321.7,20.8z
				 M1322.1,24.5h1v11.4h-1V24.5z"/>
			<path fill="#6C6F70" d="M1326.8,33.9c1,0.8,2,1.5,3.6,1.5c1.8,0,2.7-1,2.7-2.3c0-1.4-1.5-2-2.8-2.5c-1.7-0.6-3.6-1.3-3.6-3.3
				c0-1.7,1.3-3,3.7-3c1.2,0,2.4,0.5,3.3,1.2l-0.6,0.7c-0.8-0.6-1.6-1-2.7-1c-1.8,0-2.6,1-2.6,2.1c0,1.3,1.3,1.8,2.7,2.3
				c1.8,0.7,3.7,1.3,3.7,3.5c0,1.7-1.4,3.2-3.8,3.2c-1.7,0-3.2-0.7-4.2-1.6L1326.8,33.9z"/>
			<path fill="#6C6F70" d="M1341.2,24.2c2.7,0,4.4,1.9,4.4,5.3c0,0.3,0,0.6,0,0.9h-8.2c0,2.9,1.7,4.9,4.3,4.9c1.2,0,2.2-0.4,3.1-1
				l0.4,0.8c-0.9,0.5-1.9,1.1-3.6,1.1c-2.9,0-5.3-2.2-5.3-6C1336.2,26.5,1338.7,24.2,1341.2,24.2z M1344.6,29.6
				c0-2.9-1.3-4.4-3.4-4.4c-1.9,0-3.7,1.7-3.9,4.4H1344.6z"/>
			<path fill="#6C6F70" d="M1348.7,24.5h0.9l0.1,1.8h0.1c1.2-1.2,2.4-2,3.9-2c2.4,0,3.4,1.4,3.4,4.4v7.3h-1v-7.2
				c0-2.4-0.8-3.6-2.6-3.6c-1.4,0-2.3,0.7-3.7,2.1v8.6h-1V24.5z M1351.9,20c1.1,0,1.8,1.3,2.6,1.3c0.5,0,0.8-0.5,0.9-1.3h0.7
				c-0.1,1-0.5,2.1-1.6,2.1c-1.2,0-1.8-1.3-2.6-1.3c-0.5,0-0.8,0.5-0.9,1.3h-0.7C1350.3,21.1,1350.8,20,1351.9,20z"/>
			<path fill="#6C6F70" d="M1365.5,24.2c2.8,0,5.1,2.2,5.1,6c0,3.8-2.4,6-5.1,6c-2.7,0-5.1-2.2-5.1-6
				C1360.4,26.4,1362.7,24.2,1365.5,24.2z M1365.5,35.3c2.3,0,4-2,4-5c0-3-1.7-5.1-4-5.1c-2.3,0-4,2.1-4,5.1
				C1361.5,33.3,1363.2,35.3,1365.5,35.3z"/>
			<path fill="#6C6F70" d="M1374.4,27.2c0.5,0,1,0.4,1,1.1c0,0.7-0.5,1.1-1,1.1c-0.5,0-1-0.4-1-1.1
				C1373.4,27.6,1373.9,27.2,1374.4,27.2z"/>
			<path fill="#6C6F70" d="M1378.8,20.8c0-0.6,0.4-1,1-1c0.5,0,1,0.4,1,1c0,0.5-0.4,0.9-1,0.9C1379.2,21.8,1378.8,21.4,1378.8,20.8z
				 M1379.2,24.5h1v11.4h-1V24.5z"/>
			<path fill="#6C6F70" d="M1384.7,24.5h0.9l0.1,1.8h0.1c1.2-1.2,2.4-2,3.9-2c2.4,0,3.4,1.4,3.4,4.4v7.3h-1v-7.2
				c0-2.4-0.8-3.6-2.6-3.6c-1.4,0-2.3,0.7-3.7,2.1v8.6h-1V24.5z"/>
			<path fill="#6C6F70" d="M1397.6,25.4h-1.8v-0.8l1.8-0.1l0.1-3.3h0.9v3.3h3.3v0.9h-3.3v7.4c0,1.4,0.4,2.4,1.9,2.4
				c0.4,0,1-0.2,1.4-0.4l0.3,0.9c-0.7,0.2-1.4,0.4-1.9,0.4c-2.2,0-2.9-1.4-2.9-3.4V25.4z"/>
			<path fill="#6C6F70" d="M1408.5,24.2c2.7,0,4.4,1.9,4.4,5.3c0,0.3,0,0.6,0,0.9h-8.2c0,2.9,1.7,4.9,4.3,4.9c1.2,0,2.2-0.4,3.1-1
				l0.4,0.8c-0.9,0.5-1.9,1.1-3.6,1.1c-2.9,0-5.3-2.2-5.3-6C1403.5,26.5,1406,24.2,1408.5,24.2z M1411.9,29.6c0-2.9-1.3-4.4-3.4-4.4
				c-1.9,0-3.7,1.7-3.9,4.4H1411.9z"/>
			<path fill="#6C6F70" d="M1416,24.5h0.9l0.1,2.1h0.1c0.8-1.4,1.9-2.4,3.2-2.4c0.4,0,0.8,0,1.1,0.2l-0.2,1c-0.4-0.1-0.6-0.2-1-0.2
				c-1,0-2.2,0.8-3.1,2.9v7.8h-1V24.5z"/>
			<path fill="#6C6F70" d="M1423.1,20.8c0-0.6,0.4-1,1-1c0.5,0,1,0.4,1,1c0,0.5-0.4,0.9-1,0.9C1423.5,21.8,1423.1,21.4,1423.1,20.8z
				 M1423.5,24.5h1v11.4h-1V24.5z"/>
			<path fill="#6C6F70" d="M1433.1,24.2c2.8,0,5.1,2.2,5.1,6c0,3.8-2.4,6-5.1,6c-2.7,0-5.1-2.2-5.1-6
				C1428,26.4,1430.4,24.2,1433.1,24.2z M1433.1,35.3c2.3,0,4-2,4-5c0-3-1.7-5.1-4-5.1c-2.3,0-4,2.1-4,5.1
				C1429.1,33.3,1430.8,35.3,1433.1,35.3z"/>
			<path fill="#6C6F70" d="M1441.6,24.5h0.9l0.1,2.1h0.1c0.8-1.4,1.9-2.4,3.2-2.4c0.4,0,0.8,0,1.1,0.2l-0.2,1
				c-0.4-0.1-0.6-0.2-1-0.2c-1,0-2.2,0.8-3.1,2.9v7.8h-1V24.5z"/>
			<path fill="#6C6F70" d="M1448.8,20.8c0-0.6,0.4-1,1-1c0.5,0,1,0.4,1,1c0,0.5-0.4,0.9-1,0.9C1449.2,21.8,1448.8,21.4,1448.8,20.8z
				 M1449.2,24.5h1v11.4h-1V24.5z"/>
			<path fill="#6C6F70" d="M1453.8,33.9c1,0.8,2,1.5,3.6,1.5c1.8,0,2.7-1,2.7-2.3c0-1.4-1.5-2-2.8-2.5c-1.7-0.6-3.6-1.3-3.6-3.3
				c0-1.7,1.3-3,3.7-3c1.2,0,2.4,0.5,3.3,1.2l-0.6,0.7c-0.8-0.6-1.6-1-2.7-1c-1.8,0-2.6,1-2.6,2.1c0,1.3,1.3,1.8,2.7,2.3
				c1.8,0.7,3.7,1.3,3.7,3.5c0,1.7-1.4,3.2-3.9,3.2c-1.7,0-3.2-0.7-4.2-1.6L1453.8,33.9z"/>
			<path fill="#6C6F70" d="M1464.2,24.5h0.9l0.1,1.8h0.1c1-1.2,2.3-2,3.6-2c1.8,0,2.8,0.9,3.2,2.3c1.3-1.4,2.6-2.3,3.9-2.3
				c2.3,0,3.4,1.4,3.4,4.4v7.3h-1.1v-7.2c0-2.4-0.8-3.6-2.5-3.6c-1.1,0-2.2,0.7-3.4,2.1v8.6h-1v-7.2c0-2.4-0.8-3.6-2.6-3.6
				c-1,0-2.2,0.7-3.4,2.1v8.6h-1V24.5z"/>
			<path fill="#6C6F70" d="M1487.7,24.2c2.8,0,5.1,2.2,5.1,6c0,3.8-2.4,6-5.1,6c-2.7,0-5.1-2.2-5.1-6
				C1482.6,26.4,1485,24.2,1487.7,24.2z M1487.7,35.3c2.3,0,4-2,4-5c0-3-1.7-5.1-4-5.1c-2.3,0-4,2.1-4,5.1
				C1483.7,33.3,1485.4,35.3,1487.7,35.3z"/>
			<path fill="#6C6F70" d="M1496.7,27.2c0.5,0,1,0.4,1,1.1c0,0.7-0.5,1.1-1,1.1c-0.5,0-1-0.4-1-1.1
				C1495.6,27.6,1496.1,27.2,1496.7,27.2z"/>
			<path fill="#6C6F70" d="M1501.4,24.5h0.9l0.1,1.8h0.1c1-1.2,2.3-2,3.6-2c1.8,0,2.8,0.9,3.2,2.3c1.3-1.4,2.6-2.3,3.9-2.3
				c2.3,0,3.4,1.4,3.4,4.4v7.3h-1.1v-7.2c0-2.4-0.8-3.6-2.5-3.6c-1.1,0-2.2,0.7-3.4,2.1v8.6h-1v-7.2c0-2.4-0.8-3.6-2.6-3.6
				c-1,0-2.2,0.7-3.4,2.1v8.6h-1V24.5z"/>
			<path fill="#6C6F70" d="M1524.8,24.2c2.7,0,4.4,1.9,4.4,5.3c0,0.3,0,0.6,0,0.9h-8.2c0,2.9,1.7,4.9,4.3,4.9c1.2,0,2.2-0.4,3.1-1
				l0.4,0.8c-0.9,0.5-1.9,1.1-3.6,1.1c-2.9,0-5.3-2.2-5.3-6C1519.8,26.5,1522.2,24.2,1524.8,24.2z M1528.1,29.6
				c0-2.9-1.3-4.4-3.4-4.4c-1.9,0-3.7,1.7-3.9,4.4H1528.1z"/>
			<path fill="#6C6F70" d="M1532.2,24.5h0.9l0.1,2.1h0.1c0.8-1.4,1.9-2.4,3.2-2.4c0.4,0,0.8,0,1.1,0.2l-0.2,1
				c-0.4-0.1-0.6-0.2-1-0.2c-1,0-2.2,0.8-3.1,2.9v7.8h-1V24.5z"/>
			<path fill="#6C6F70" d="M1543.8,24.2c1.6,0,2.6,0.7,3.4,1.4l-0.6,0.7c-0.7-0.7-1.6-1.2-2.7-1.2c-2.3,0-4.1,2.1-4.1,5.1
				c0,3,1.6,5,4.1,5c1.2,0,2.3-0.6,3-1.3l0.5,0.7c-1,0.9-2.2,1.5-3.6,1.5c-2.9,0-5.2-2.2-5.2-6C1538.6,26.4,1541,24.2,1543.8,24.2z"
				/>
			<path fill="#6C6F70" d="M1550.2,18.8h1v4.9v2.5c1.2-1.2,2.4-2.1,3.9-2.1c2.4,0,3.4,1.4,3.4,4.4v7.3h-1v-7.2
				c0-2.4-0.8-3.6-2.6-3.6c-1.4,0-2.3,0.7-3.7,2.1v8.6h-1V18.8z"/>
			<path fill="#6C6F70" d="M1569.5,28.8c0-1.7-0.5-3.6-2.7-3.6c-1.5,0-2.9,0.8-3.6,1.3l-0.5-0.8c0.8-0.6,2.4-1.5,4.2-1.5
				c2.7,0,3.6,1.9,3.6,4.4v7.3h-0.9l-0.1-1.5h0c-1.2,0.9-2.5,1.8-4,1.8c-1.8,0-3.3-1-3.3-3.1C1562.1,30.6,1564.4,29.4,1569.5,28.8z
				 M1565.6,35.3c1.3,0,2.5-0.6,3.9-1.9v-3.9c-4.7,0.5-6.3,1.6-6.3,3.4C1563.2,34.7,1564.3,35.3,1565.6,35.3z"/>
			<path fill="#6C6F70" d="M1574.6,24.5h0.9l0.1,1.8h0.1c1.2-1.2,2.4-2,3.9-2c2.4,0,3.4,1.4,3.4,4.4v7.3h-1v-7.2
				c0-2.4-0.8-3.6-2.6-3.6c-1.4,0-2.3,0.7-3.7,2.1v8.6h-1V24.5z"/>
			<path fill="#6C6F70" d="M1591.3,24.2c1.4,0,2.3,0.5,3.4,1.4l0-2.1v-4.7h1v17.1h-0.9l-0.1-1.5h-0.1c-0.9,0.9-2.2,1.8-3.7,1.8
				c-2.9,0-4.7-2.1-4.7-6C1586.3,26.6,1588.6,24.2,1591.3,24.2z M1591.1,35.3c1.3,0,2.4-0.7,3.6-1.9v-6.8c-1.2-1.1-2.2-1.5-3.3-1.5
				c-2.3,0-4,2.2-4,5.1C1587.4,33.3,1588.7,35.3,1591.1,35.3z"/>
			<path fill="#6C6F70" d="M1599.7,20.8c0-0.6,0.4-1,1-1c0.5,0,1,0.4,1,1c0,0.5-0.4,0.9-1,0.9C1600.2,21.8,1599.7,21.4,1599.7,20.8z
				 M1600.1,24.5h1v11.4h-1V24.5z"/>
			<path fill="#6C6F70" d="M1604.8,33.9c1,0.8,2,1.5,3.6,1.5c1.8,0,2.7-1,2.7-2.3c0-1.4-1.5-2-2.8-2.5c-1.7-0.6-3.6-1.3-3.6-3.3
				c0-1.7,1.3-3,3.7-3c1.2,0,2.4,0.5,3.3,1.2l-0.6,0.7c-0.8-0.6-1.6-1-2.7-1c-1.8,0-2.6,1-2.6,2.1c0,1.3,1.3,1.8,2.7,2.3
				c1.8,0.7,3.7,1.3,3.7,3.5c0,1.7-1.4,3.2-3.9,3.2c-1.7,0-3.2-0.7-4.2-1.6L1604.8,33.9z"/>
			<path fill="#6C6F70" d="M1614.8,20.8c0-0.6,0.4-1,1-1c0.5,0,1,0.4,1,1c0,0.5-0.4,0.9-1,0.9C1615.2,21.8,1614.8,21.4,1614.8,20.8z
				 M1615.2,24.5h1v11.4h-1V24.5z"/>
			<path fill="#6C6F70" d="M1620.7,24.5h0.9l0.1,1.8h0.1c1.2-1.2,2.4-2,3.9-2c2.4,0,3.4,1.4,3.4,4.4v7.3h-1v-7.2
				c0-2.4-0.8-3.6-2.6-3.6c-1.4,0-2.3,0.7-3.7,2.1v8.6h-1V24.5z"/>
			<path fill="#6C6F70" d="M1634,35.5L1634,35.5c-0.6-0.4-1-1-1-1.9c0-1,0.7-1.7,1.2-2.1v-0.1c-0.7-0.6-1.4-1.8-1.4-3.1
				c0-2.4,1.8-4,4-4c0.6,0,1.1,0.1,1.5,0.3h3.9v0.9h-2.7c0.7,0.6,1.3,1.7,1.3,2.9c0,2.3-1.7,4-4,4c-0.6,0-1.4-0.2-1.9-0.5
				c-0.5,0.4-0.9,0.9-0.9,1.6c0,0.8,0.5,1.5,2.2,1.5h2.4c2.6,0,3.8,0.8,3.8,2.6c0,2-2.1,3.9-5.4,3.9c-2.9,0-4.7-1.2-4.7-3.2
				C1632.3,37.3,1633,36.3,1634,35.5z M1637.1,40.6c2.6,0,4.2-1.4,4.2-2.9c0-1.3-0.9-1.7-2.6-1.7h-2.4c-0.2,0-0.8,0-1.4-0.2
				c-1,0.7-1.5,1.6-1.5,2.4C1633.3,39.6,1634.7,40.6,1637.1,40.6z M1639.8,28.3c0-1.9-1.3-3.2-2.9-3.2c-1.6,0-3,1.2-3,3.2
				c0,1.9,1.4,3.2,3,3.2C1638.4,31.5,1639.8,30.2,1639.8,28.3z"/>
		</g>
	</g>
</g>
<rect x="1052.4" y="-67.6" fill="none" stroke="#7A7A7A" stroke-miterlimit="10" width="609" height="146"/>
<g>
	<path fill-rule="evenodd" clip-rule="evenodd" fill="#CA0B0F" d="M2187.2-258c6.6,0,12.4-2.4,17.4-7.2c4.9-4.8,7.4-10.6,7.4-17.5
		c0-6.9-2.4-12.8-7.3-17.7c-4.9-4.9-10.7-7.3-17.6-7.3c-6.8,0-12.7,2.5-17.5,7.3c-4.9,4.9-7.3,10.8-7.3,17.7
		c0,6.9,2.4,12.7,7.1,17.5C2174.3-260.4,2180.2-258,2187.2-258z"/>
	<path fill-rule="evenodd" clip-rule="evenodd" fill="#CA0B0F" d="M2239.4-258c6.8,0,12.6-2.4,17.4-7.2c4.8-4.8,7.1-10.6,7.1-17.5
		c0-6.7-2.4-12.5-7.1-17.5c-4.8-5-10.6-7.5-17.4-7.5c-6.8,0-12.7,2.5-17.6,7.3c-4.9,4.9-7.3,10.8-7.3,17.7c0,6.9,2.4,12.7,7.1,17.5
		C2226.4-260.4,2232.4-258,2239.4-258z"/>
	<path fill-rule="evenodd" clip-rule="evenodd" fill="#CA0B0F" d="M2187.1-310.2c6.9,0,12.8-2.4,17.7-7.2c4.9-4.8,7.3-10.6,7.3-17.1
		c0-6.8-2.5-12.6-7.3-17.4c-4.9-4.8-10.8-7.3-17.7-7.3c-6.9,0-12.7,2.4-17.5,7.1c-4.8,4.7-7.2,10.6-7.2,17.6c0,6.6,2.3,12.3,7,17.1
		C2174.1-312.6,2180-310.2,2187.1-310.2z"/>
	<path fill-rule="evenodd" clip-rule="evenodd" fill="#CA0B0F" d="M2083.2-153.9c6.8,0,12.7-2.4,17.5-7.3c4.9-4.9,7.3-10.7,7.3-17.5
		s-2.4-12.6-7.2-17.4c-4.8-4.8-10.7-7.2-17.8-7.2c-6.7,0-12.4,2.3-17.3,7c-4.9,4.6-7.4,10.5-7.4,17.5c0,12.4-1.4,20.1-4.3,23
		c-2.9,2.9-10.5,4.3-22.8,4.3c-6.6,0-12.4,2.4-17.3,7.2c-5,4.8-7.4,10.6-7.4,17.4c0,6.8,2.4,12.7,7.3,17.5
		c4.9,4.9,10.7,7.3,17.6,7.3c6.8,0,12.6-2.4,17.4-7.1c4.8-4.8,7.2-10.7,7.2-17.7c0-12.2,1.5-19.8,4.3-22.7
		C2063.1-152.5,2070.7-153.9,2083.2-153.9z"/>
	<path fill-rule="evenodd" clip-rule="evenodd" fill="#CA0B0F" d="M2083.2-205.8c6.6,0,12.4-2.4,17.4-7.2c5-4.8,7.4-10.6,7.4-17.5
		c0-6.9-2.5-12.8-7.3-17.7c-4.9-4.9-10.8-7.3-17.7-7.3c-6.9,0-12.7,2.4-17.5,7.2c-4.8,4.8-7.2,10.7-7.2,17.8
		c0,12.3-1.4,19.9-4.3,22.8c-2.9,2.9-10.5,4.4-22.8,4.4c-6.8,0-12.6,2.4-17.5,7.3c-4.8,4.9-7.3,10.7-7.3,17.6
		c0,6.8,2.4,12.6,7.2,17.4c4.8,4.8,10.6,7.1,17.7,7.1c6.8,0,12.6-2.4,17.4-7.1c4.8-4.8,7.2-10.6,7.2-17.4c0-12.4,1.5-20.1,4.3-23
		C2063.1-204.4,2070.7-205.8,2083.2-205.8z"/>
	<path fill-rule="evenodd" clip-rule="evenodd" fill="#CA0B0F" d="M2083.2-310.2c6.8,0,12.7-2.4,17.5-7.2c4.9-4.8,7.3-10.6,7.3-17.3
		c0-6.7-2.5-12.5-7.3-17.3c-4.9-4.8-10.8-7.2-17.7-7.2c-6.9,0-12.7,2.4-17.5,7.1c-4.8,4.7-7.2,10.6-7.2,17.6
		c0,12.1-1.4,19.7-4.3,22.5c-2.9,2.9-10.5,4.3-22.8,4.3c-6.8,0-12.6,2.5-17.5,7.3c-4.8,4.9-7.3,10.8-7.3,17.7
		c0,6.9,2.4,12.7,7.2,17.5c4.8,4.8,10.6,7.2,17.7,7.2c6.8,0,12.6-2.4,17.4-7.2c4.8-4.8,7.2-10.7,7.2-17.6c0-12.4,1.5-20,4.3-23
		C2063.1-308.7,2070.7-310.2,2083.2-310.2z"/>
	<path fill-rule="evenodd" clip-rule="evenodd" fill="#CA0B0F" d="M2031.2-255.5c-6.6,0-12.4,2.4-17.3,7.2c-5,4.8-7.4,10.6-7.4,17.5
		c0,6.9,2.4,12.8,7.3,17.6c4.9,4.9,10.7,7.4,17.6,7.4c6.8,0,12.6-2.4,17.4-7.2c4.8-4.8,7.2-10.7,7.2-17.8c0-12.3,1.5-19.9,4.3-22.8
		c2.9-2.9,10.5-4.4,23-4.4c6.8,0,12.7-2.4,17.5-7.3c4.9-4.9,7.3-10.7,7.3-17.5v-2.2c0-11.4,1.4-18.4,4.3-21.1c2.9-2.7,10.6-4,23-4
		c6.8,0,12.6-2.4,17.4-7.1c4.8-4.7,7.1-10.5,7.1-17.3c0-6.6-2.4-12.4-7.1-17.3c-4.8-4.9-10.6-7.4-17.4-7.4c-6.8,0-12.7,2.4-17.6,7.3
		c-4.9,4.8-7.3,10.6-7.3,17.4c0,12.1-1.5,19.7-4.4,22.5c-2.9,2.9-10.6,4.3-23.1,4.3c-6.9,0-12.7,2.4-17.5,7.1
		c-4.8,4.8-7.2,10.6-7.2,17.4v2.5c0,11.2-1.5,18.2-4.5,21C2050.9-256.9,2043.3-255.5,2031.2-255.5z"/>
	<path fill-rule="evenodd" clip-rule="evenodd" fill="#CA0B0F" d="M2083.2-102.1c6.8,0,12.7-2.4,17.5-7.3c4.9-4.9,7.3-10.7,7.3-17.5
		c0-6.8-2.4-12.6-7.2-17.4c-4.8-4.8-10.7-7.2-17.8-7.2c-6.7,0-12.4,2.3-17.3,7c-4.9,4.7-7.4,10.5-7.4,17.6c0,12.4-1.4,20.1-4.3,23
		c-2.9,2.9-10.5,4.3-22.8,4.3c-6.6,0-12.4,2.4-17.3,7.2c-5,4.8-7.4,10.6-7.4,17.4s2.4,12.7,7.3,17.5c4.9,4.9,10.7,7.3,17.6,7.3
		c6.8,0,12.6-2.4,17.4-7.1c4.8-4.8,7.2-10.7,7.2-17.7c0-12.2,1.5-19.8,4.3-22.7C2063.1-100.6,2070.7-102.1,2083.2-102.1z"/>
</g>
<g>
	<path fill="#CA0B0F" d="M1886.7,11.9l-8.4-14.6h-6.2v14.6h-4.4v-34.7h10.9c7,0,12.1,2.5,12.1,9.7c0,5.4-3.1,8.6-7.8,9.8l8.8,15.1
		H1886.7z M1872.1-6.4h5.8c5.4,0,8.4-2.2,8.4-6.7c0-4.5-3-6.2-8.4-6.2h-5.8V-6.4z"/>
	<path fill="#CA0B0F" d="M1896.1-5.6c0-11.1,6.1-17.8,14.9-17.8c8.7,0,14.8,6.8,14.8,17.8c0,11.2-6.1,18.1-14.8,18.1
		C1902.2,12.5,1896.1,5.5,1896.1-5.6z M1921.2-5.6c0-8.6-4.1-14-10.3-14c-6.2,0-10.3,5.3-10.3,14c0,8.7,4.1,14.3,10.3,14.3
		C1917.1,8.6,1921.2,3,1921.2-5.6z"/>
	<path fill="#CA0B0F" d="M1930.9,4.7c1.6,2.7,3.5,3.9,6,3.9c3.7,0,5.6-2.1,5.6-7.4v-24.1h4.4V1.6c0,6-2.8,10.8-9.6,10.8
		c-4.4,0-7.5-1.9-9.5-5.6L1930.9,4.7z"/>
	<path fill="#CA0B0F" d="M1953.9-5.6c0-11.1,6.1-17.8,14.9-17.8c8.7,0,14.8,6.8,14.8,17.8c0,11.2-6.1,18.1-14.8,18.1
		C1960,12.5,1953.9,5.5,1953.9-5.6z M1979-5.6c0-8.6-4.1-14-10.3-14c-6.2,0-10.3,5.3-10.3,14c0,8.7,4.1,14.3,10.3,14.3
		C1974.9,8.6,1979,3,1979-5.6z"/>
	<path fill="#6C6F70" d="M2001.6-23h8c10.7,0,15.9,6.8,15.9,17.3c0,10.6-5.1,17.6-15.8,17.6h-8.1V-23z M2009.4,9.8
		c9.5,0,13.6-6.4,13.6-15.5c0-9-4.1-15.2-13.6-15.2h-5.3V9.8H2009.4z"/>
	<path fill="#6C6F70" d="M2033.3-23h2.4v34.8h-2.4V-23z"/>
	<path fill="#6C6F70" d="M2044.5,5.6c2.5,2.9,6.2,4.7,10.3,4.7c5.3,0,8.7-2.9,8.7-7c0-4.3-2.9-5.8-6.3-7.3l-5.3-2.4
		c-3-1.3-7-3.5-7-8.7c0-5,4.3-8.6,10.1-8.6c4.2,0,7.6,1.9,9.7,4.2l-1.4,1.6c-2-2.2-4.8-3.6-8.3-3.6c-4.6,0-7.7,2.4-7.7,6.2
		c0,4,3.5,5.6,6,6.7l5.3,2.3c3.9,1.7,7.3,3.9,7.3,9.3c0,5.3-4.4,9.4-11.2,9.4c-5.1,0-9-2.2-11.7-5.2L2044.5,5.6z"/>
	<path fill="#6C6F70" d="M2072.8-23h19v2.1h-16.6v13.2h14v2.1h-14V9.7h17.1v2.1h-19.6V-23z"/>
	<path fill="#6C6F70" d="M2099.6-23h2.5l14.6,24.6l4,6.9h0.2c-0.2-3.4-0.3-6.8-0.3-10.2V-23h2.3v34.8h-2.5l-14.6-24.6l-4-6.9h-0.2
		c0.2,3.3,0.3,6.5,0.3,9.9v21.6h-2.3V-23z M2108.3-29c-1.1,0-2,1.2-2.2,3h-1.5c0.2-2.4,1.4-4.9,3.8-4.9c2.8,0,4.1,3,6.3,3
		c1.1,0,2-1.2,2.2-3h1.5c-0.2,2.3-1.4,4.9-3.8,4.9C2111.8-26,2110.5-29,2108.3-29z"/>
	<path fill="#6C6F70" d="M2130.6-5.7c0-11,6-17.9,14.4-17.9c8.4,0,14.3,6.9,14.3,17.9c0,11.1-6,18.2-14.3,18.2
		C2136.6,12.5,2130.6,5.4,2130.6-5.7z M2156.8-5.7c0-9.6-4.8-15.7-11.8-15.7c-7.1,0-11.8,6.1-11.8,15.7c0,9.7,4.8,16,11.8,16
		C2152,10.3,2156.8,4,2156.8-5.7z"/>
	<path fill="#6C6F70" d="M2177.5-23h2.4v34.8h-2.4V-23z"/>
	<path fill="#6C6F70" d="M2189.8-23h3.4l7.3,20.5l2.7,7.7h0.2l2.7-7.7l7.2-20.5h3.4v34.8h-2.4V-11c0-2.9,0.2-6.5,0.3-9.4h-0.2
		l-2.7,7.7L2204.4,8h-2.1l-7.5-20.8l-2.8-7.7h-0.2c0.1,2.9,0.3,6.6,0.3,9.4v22.9h-2.2V-23z"/>
	<path fill="#6C6F70" d="M2242.4-0.1h-13.8l-4.1,12h-2.5l12.3-34.8h2.4l12.3,34.8h-2.6L2242.4-0.1z M2241.7-2.2l-2.2-6.5
		c-1.4-4.1-2.6-7.8-3.9-12.1h-0.2c-1.2,4.3-2.4,7.9-3.9,12.1l-2.2,6.5H2241.7z"/>
	<path fill="#6C6F70" d="M2266.9-23.6c4.7,0,7.6,2.2,9.5,4.2l-1.4,1.6c-1.8-2-4.2-3.5-8-3.5c-8,0-12.9,6.1-12.9,15.8
		c0,9.7,4.7,15.9,12.6,15.9c3.1,0,6.1-1,7.8-2.6V-3.2h-8.3v-2.1h10.6V8.5c-2.2,2.3-5.8,4-10.3,4c-8.9,0-15-7-15-18.1
		C2251.4-16.7,2257.7-23.6,2266.9-23.6z"/>
	<path fill="#6C6F70" d="M2285.3-23h19v2.1h-16.6v13.2h14v2.1h-14V9.7h17.1v2.1h-19.6V-23z"/>
	<path fill="#6C6F70" d="M2312.1-23h2.5l14.6,24.6l4,6.9h0.2c-0.2-3.4-0.3-6.8-0.3-10.2V-23h2.3v34.8h-2.5l-14.6-24.6l-4-6.9h-0.2
		c0.2,3.3,0.3,6.5,0.3,9.9v21.6h-2.3V-23z"/>
	<g>
		<g>
			<path fill="#6C6F70" d="M2006.3,24.2c1.4,0,2.3,0.5,3.4,1.4l0-2.1v-4.7h1v17.1h-0.9l-0.1-1.5h-0.1c-0.9,0.9-2.2,1.8-3.7,1.8
				c-2.9,0-4.7-2.1-4.7-6C2001.3,26.6,2003.6,24.2,2006.3,24.2z M2006.1,35.3c1.3,0,2.4-0.7,3.6-1.9v-6.8c-1.2-1.1-2.2-1.5-3.3-1.5
				c-2.3,0-4,2.2-4,5.1C2002.4,33.3,2003.7,35.3,2006.1,35.3z"/>
			<path fill="#6C6F70" d="M2014.7,20.8c0-0.6,0.4-1,1-1c0.5,0,1,0.4,1,1c0,0.5-0.4,0.9-1,0.9C2015.2,21.8,2014.7,21.4,2014.7,20.8z
				 M2015.1,24.5h1v11.4h-1V24.5z"/>
			<path fill="#6C6F70" d="M2019.8,33.9c1,0.8,2,1.5,3.6,1.5c1.8,0,2.7-1,2.7-2.3c0-1.4-1.5-2-2.8-2.5c-1.7-0.6-3.6-1.3-3.6-3.3
				c0-1.7,1.3-3,3.7-3c1.2,0,2.4,0.5,3.3,1.2l-0.6,0.7c-0.8-0.6-1.6-1-2.7-1c-1.8,0-2.6,1-2.6,2.1c0,1.3,1.3,1.8,2.7,2.3
				c1.8,0.7,3.7,1.3,3.7,3.5c0,1.7-1.4,3.2-3.8,3.2c-1.7,0-3.2-0.7-4.2-1.6L2019.8,33.9z"/>
			<path fill="#6C6F70" d="M2034.2,24.2c2.7,0,4.4,1.9,4.4,5.3c0,0.3,0,0.6,0,0.9h-8.2c0,2.9,1.7,4.9,4.3,4.9c1.2,0,2.2-0.4,3.1-1
				l0.4,0.8c-0.9,0.5-1.9,1.1-3.6,1.1c-2.9,0-5.3-2.2-5.3-6C2029.2,26.5,2031.7,24.2,2034.2,24.2z M2037.6,29.6
				c0-2.9-1.3-4.4-3.4-4.4c-1.9,0-3.7,1.7-3.9,4.4H2037.6z"/>
			<path fill="#6C6F70" d="M2041.7,24.5h0.9l0.1,1.8h0.1c1.2-1.2,2.4-2,3.9-2c2.4,0,3.4,1.4,3.4,4.4v7.3h-1v-7.2
				c0-2.4-0.8-3.6-2.6-3.6c-1.4,0-2.3,0.7-3.7,2.1v8.6h-1V24.5z M2044.9,20c1.1,0,1.8,1.3,2.6,1.3c0.5,0,0.8-0.5,0.9-1.3h0.7
				c-0.1,1-0.5,2.1-1.6,2.1c-1.2,0-1.8-1.3-2.6-1.3c-0.5,0-0.8,0.5-0.9,1.3h-0.7C2043.3,21.1,2043.8,20,2044.9,20z"/>
			<path fill="#6C6F70" d="M2058.5,24.2c2.8,0,5.1,2.2,5.1,6c0,3.8-2.4,6-5.1,6c-2.7,0-5.1-2.2-5.1-6
				C2053.4,26.4,2055.7,24.2,2058.5,24.2z M2058.5,35.3c2.3,0,4-2,4-5c0-3-1.7-5.1-4-5.1c-2.3,0-4,2.1-4,5.1
				C2054.4,33.3,2056.2,35.3,2058.5,35.3z"/>
			<path fill="#6C6F70" d="M2067.4,27.2c0.5,0,1,0.4,1,1.1c0,0.7-0.5,1.1-1,1.1c-0.5,0-1-0.4-1-1.1
				C2066.4,27.6,2066.9,27.2,2067.4,27.2z"/>
			<path fill="#6C6F70" d="M2071.8,20.8c0-0.6,0.4-1,1-1c0.5,0,1,0.4,1,1c0,0.5-0.4,0.9-1,0.9C2072.2,21.8,2071.8,21.4,2071.8,20.8z
				 M2072.2,24.5h1v11.4h-1V24.5z"/>
			<path fill="#6C6F70" d="M2077.7,24.5h0.9l0.1,1.8h0.1c1.2-1.2,2.4-2,3.9-2c2.4,0,3.4,1.4,3.4,4.4v7.3h-1v-7.2
				c0-2.4-0.8-3.6-2.6-3.6c-1.4,0-2.3,0.7-3.7,2.1v8.6h-1V24.5z"/>
			<path fill="#6C6F70" d="M2090.6,25.4h-1.8v-0.8l1.8-0.1l0.1-3.3h0.9v3.3h3.3v0.9h-3.3v7.4c0,1.4,0.4,2.4,1.9,2.4
				c0.4,0,1-0.2,1.4-0.4l0.3,0.9c-0.7,0.2-1.4,0.4-1.9,0.4c-2.2,0-2.9-1.4-2.9-3.4V25.4z"/>
			<path fill="#6C6F70" d="M2101.5,24.2c2.7,0,4.4,1.9,4.4,5.3c0,0.3,0,0.6,0,0.9h-8.2c0,2.9,1.7,4.9,4.3,4.9c1.2,0,2.2-0.4,3.1-1
				l0.4,0.8c-0.9,0.5-1.9,1.1-3.6,1.1c-2.9,0-5.3-2.2-5.3-6C2096.5,26.5,2099,24.2,2101.5,24.2z M2104.9,29.6c0-2.9-1.3-4.4-3.4-4.4
				c-1.9,0-3.7,1.7-3.9,4.4H2104.9z"/>
			<path fill="#6C6F70" d="M2109,24.5h0.9l0.1,2.1h0.1c0.8-1.4,1.9-2.4,3.2-2.4c0.4,0,0.8,0,1.1,0.2l-0.2,1c-0.4-0.1-0.6-0.2-1-0.2
				c-1,0-2.2,0.8-3.1,2.9v7.8h-1V24.5z"/>
			<path fill="#6C6F70" d="M2116.1,20.8c0-0.6,0.4-1,1-1c0.5,0,1,0.4,1,1c0,0.5-0.4,0.9-1,0.9C2116.5,21.8,2116.1,21.4,2116.1,20.8z
				 M2116.5,24.5h1v11.4h-1V24.5z"/>
			<path fill="#6C6F70" d="M2126.1,24.2c2.8,0,5.1,2.2,5.1,6c0,3.8-2.4,6-5.1,6c-2.7,0-5.1-2.2-5.1-6
				C2121,26.4,2123.4,24.2,2126.1,24.2z M2126.1,35.3c2.3,0,4-2,4-5c0-3-1.7-5.1-4-5.1s-4,2.1-4,5.1
				C2122.1,33.3,2123.8,35.3,2126.1,35.3z"/>
			<path fill="#6C6F70" d="M2134.6,24.5h0.9l0.1,2.1h0.1c0.8-1.4,1.9-2.4,3.2-2.4c0.4,0,0.8,0,1.1,0.2l-0.2,1
				c-0.4-0.1-0.6-0.2-1-0.2c-1,0-2.2,0.8-3.1,2.9v7.8h-1V24.5z"/>
			<path fill="#6C6F70" d="M2141.8,20.8c0-0.6,0.4-1,1-1c0.5,0,1,0.4,1,1c0,0.5-0.4,0.9-1,0.9C2142.2,21.8,2141.8,21.4,2141.8,20.8z
				 M2142.2,24.5h1v11.4h-1V24.5z"/>
			<path fill="#6C6F70" d="M2146.8,33.9c1,0.8,2,1.5,3.6,1.5c1.8,0,2.7-1,2.7-2.3c0-1.4-1.5-2-2.8-2.5c-1.7-0.6-3.6-1.3-3.6-3.3
				c0-1.7,1.3-3,3.7-3c1.2,0,2.4,0.5,3.3,1.2l-0.6,0.7c-0.8-0.6-1.6-1-2.7-1c-1.8,0-2.6,1-2.6,2.1c0,1.3,1.3,1.8,2.7,2.3
				c1.8,0.7,3.7,1.3,3.7,3.5c0,1.7-1.4,3.2-3.9,3.2c-1.7,0-3.2-0.7-4.2-1.6L2146.8,33.9z"/>
			<path fill="#6C6F70" d="M2157.2,24.5h0.9l0.1,1.8h0.1c1-1.2,2.3-2,3.6-2c1.8,0,2.8,0.9,3.2,2.3c1.3-1.4,2.6-2.3,3.9-2.3
				c2.3,0,3.4,1.4,3.4,4.4v7.3h-1.1v-7.2c0-2.4-0.8-3.6-2.5-3.6c-1.1,0-2.2,0.7-3.4,2.1v8.6h-1v-7.2c0-2.4-0.8-3.6-2.6-3.6
				c-1,0-2.2,0.7-3.4,2.1v8.6h-1V24.5z"/>
			<path fill="#6C6F70" d="M2180.7,24.2c2.8,0,5.1,2.2,5.1,6c0,3.8-2.4,6-5.1,6c-2.7,0-5.1-2.2-5.1-6
				C2175.6,26.4,2178,24.2,2180.7,24.2z M2180.7,35.3c2.3,0,4-2,4-5c0-3-1.7-5.1-4-5.1s-4,2.1-4,5.1
				C2176.7,33.3,2178.4,35.3,2180.7,35.3z"/>
			<path fill="#6C6F70" d="M2189.7,27.2c0.5,0,1,0.4,1,1.1c0,0.7-0.5,1.1-1,1.1c-0.5,0-1-0.4-1-1.1
				C2188.6,27.6,2189.1,27.2,2189.7,27.2z"/>
			<path fill="#6C6F70" d="M2194.4,24.5h0.9l0.1,1.8h0.1c1-1.2,2.3-2,3.6-2c1.8,0,2.8,0.9,3.2,2.3c1.3-1.4,2.6-2.3,3.9-2.3
				c2.3,0,3.4,1.4,3.4,4.4v7.3h-1.1v-7.2c0-2.4-0.8-3.6-2.5-3.6c-1.1,0-2.2,0.7-3.4,2.1v8.6h-1v-7.2c0-2.4-0.8-3.6-2.6-3.6
				c-1,0-2.2,0.7-3.4,2.1v8.6h-1V24.5z"/>
			<path fill="#6C6F70" d="M2217.8,24.2c2.7,0,4.4,1.9,4.4,5.3c0,0.3,0,0.6,0,0.9h-8.2c0,2.9,1.7,4.9,4.3,4.9c1.2,0,2.2-0.4,3.1-1
				l0.4,0.8c-0.9,0.5-1.9,1.1-3.6,1.1c-2.9,0-5.3-2.2-5.3-6C2212.8,26.5,2215.2,24.2,2217.8,24.2z M2221.1,29.6
				c0-2.9-1.3-4.4-3.4-4.4c-1.9,0-3.7,1.7-3.9,4.4H2221.1z"/>
			<path fill="#6C6F70" d="M2225.2,24.5h0.9l0.1,2.1h0.1c0.8-1.4,1.9-2.4,3.2-2.4c0.4,0,0.8,0,1.1,0.2l-0.2,1
				c-0.4-0.1-0.6-0.2-1-0.2c-1,0-2.2,0.8-3.1,2.9v7.8h-1V24.5z"/>
			<path fill="#6C6F70" d="M2236.8,24.2c1.6,0,2.6,0.7,3.4,1.4l-0.6,0.7c-0.7-0.7-1.6-1.2-2.7-1.2c-2.3,0-4.1,2.1-4.1,5.1
				c0,3,1.6,5,4.1,5c1.2,0,2.3-0.6,3-1.3l0.5,0.7c-1,0.9-2.2,1.5-3.6,1.5c-2.9,0-5.2-2.2-5.2-6C2231.6,26.4,2234,24.2,2236.8,24.2z"
				/>
			<path fill="#6C6F70" d="M2243.2,18.8h1v4.9v2.5c1.2-1.2,2.4-2.1,3.9-2.1c2.4,0,3.4,1.4,3.4,4.4v7.3h-1v-7.2
				c0-2.4-0.8-3.6-2.6-3.6c-1.4,0-2.3,0.7-3.7,2.1v8.6h-1V18.8z"/>
			<path fill="#6C6F70" d="M2262.5,28.8c0-1.7-0.5-3.6-2.7-3.6c-1.5,0-2.9,0.8-3.6,1.3l-0.5-0.8c0.8-0.6,2.4-1.5,4.2-1.5
				c2.7,0,3.6,1.9,3.6,4.4v7.3h-0.9l-0.1-1.5h0c-1.2,0.9-2.5,1.8-4,1.8c-1.8,0-3.3-1-3.3-3.1C2255.1,30.6,2257.4,29.4,2262.5,28.8z
				 M2258.6,35.3c1.3,0,2.5-0.6,3.9-1.9v-3.9c-4.7,0.5-6.3,1.6-6.3,3.4C2256.2,34.7,2257.3,35.3,2258.6,35.3z"/>
			<path fill="#6C6F70" d="M2267.6,24.5h0.9l0.1,1.8h0.1c1.2-1.2,2.4-2,3.9-2c2.4,0,3.4,1.4,3.4,4.4v7.3h-1v-7.2
				c0-2.4-0.8-3.6-2.6-3.6c-1.4,0-2.3,0.7-3.7,2.1v8.6h-1V24.5z"/>
			<path fill="#6C6F70" d="M2284.3,24.2c1.4,0,2.3,0.5,3.4,1.4l0-2.1v-4.7h1v17.1h-0.9l-0.1-1.5h-0.1c-0.9,0.9-2.2,1.8-3.7,1.8
				c-2.9,0-4.7-2.1-4.7-6C2279.3,26.6,2281.6,24.2,2284.3,24.2z M2284.1,35.3c1.3,0,2.4-0.7,3.6-1.9v-6.8c-1.2-1.1-2.2-1.5-3.3-1.5
				c-2.3,0-4,2.2-4,5.1C2280.4,33.3,2281.7,35.3,2284.1,35.3z"/>
			<path fill="#6C6F70" d="M2292.7,20.8c0-0.6,0.4-1,1-1c0.5,0,1,0.4,1,1c0,0.5-0.4,0.9-1,0.9C2293.2,21.8,2292.7,21.4,2292.7,20.8z
				 M2293.1,24.5h1v11.4h-1V24.5z"/>
			<path fill="#6C6F70" d="M2297.8,33.9c1,0.8,2,1.5,3.6,1.5c1.8,0,2.7-1,2.7-2.3c0-1.4-1.5-2-2.8-2.5c-1.7-0.6-3.6-1.3-3.6-3.3
				c0-1.7,1.3-3,3.7-3c1.2,0,2.4,0.5,3.3,1.2l-0.6,0.7c-0.8-0.6-1.6-1-2.7-1c-1.8,0-2.6,1-2.6,2.1c0,1.3,1.3,1.8,2.7,2.3
				c1.8,0.7,3.7,1.3,3.7,3.5c0,1.7-1.4,3.2-3.9,3.2c-1.7,0-3.2-0.7-4.2-1.6L2297.8,33.9z"/>
			<path fill="#6C6F70" d="M2307.8,20.8c0-0.6,0.4-1,1-1c0.5,0,1,0.4,1,1c0,0.5-0.4,0.9-1,0.9C2308.2,21.8,2307.8,21.4,2307.8,20.8z
				 M2308.2,24.5h1v11.4h-1V24.5z"/>
			<path fill="#6C6F70" d="M2313.7,24.5h0.9l0.1,1.8h0.1c1.2-1.2,2.4-2,3.9-2c2.4,0,3.4,1.4,3.4,4.4v7.3h-1v-7.2
				c0-2.4-0.8-3.6-2.6-3.6c-1.4,0-2.3,0.7-3.7,2.1v8.6h-1V24.5z"/>
			<path fill="#6C6F70" d="M2327,35.5L2327,35.5c-0.6-0.4-1-1-1-1.9c0-1,0.7-1.7,1.2-2.1v-0.1c-0.7-0.6-1.4-1.8-1.4-3.1
				c0-2.4,1.8-4,4-4c0.6,0,1.1,0.1,1.5,0.3h3.9v0.9h-2.7c0.7,0.6,1.3,1.7,1.3,2.9c0,2.3-1.7,4-4,4c-0.6,0-1.4-0.2-1.9-0.5
				c-0.5,0.4-0.9,0.9-0.9,1.6c0,0.8,0.5,1.5,2.2,1.5h2.4c2.6,0,3.8,0.8,3.8,2.6c0,2-2.1,3.9-5.4,3.9c-2.9,0-4.7-1.2-4.7-3.2
				C2325.3,37.3,2326,36.3,2327,35.5z M2330.1,40.6c2.6,0,4.2-1.4,4.2-2.9c0-1.3-0.9-1.7-2.6-1.7h-2.4c-0.2,0-0.8,0-1.4-0.2
				c-1,0.7-1.5,1.6-1.5,2.4C2326.3,39.6,2327.7,40.6,2330.1,40.6z M2332.8,28.3c0-1.9-1.3-3.2-2.9-3.2c-1.6,0-3,1.2-3,3.2
				c0,1.9,1.4,3.2,3,3.2C2331.4,31.5,2332.8,30.2,2332.8,28.3z"/>
		</g>
	</g>
</g>
<rect x="1745.4" y="-67.6" fill="none" stroke="#7A7A7A" stroke-miterlimit="10" width="609" height="146"/>
</svg>
